<svg width="64" height="64" viewBox="0 0 64 64" xmlns="http://www.w3.org/2000/svg"><mask id="satori_om-id"><rect x="0" y="0" width="64" height="64" fill="#fff"/></mask><path x="0" y="0" width="64" height="64" fill="#AF3029" d="M12.8,0 h38.400000000000006 a12.8,12.8 0 0 1 12.8,12.8 v38.400000000000006 a12.8,12.8 0 0 1 -12.8,12.8 h-38.4 a12.8,12.8 0 0 1 -12.8,-12.8 v-38.4 a12.8,12.8 0 0 1 12.8,-12.8"/><mask id="satori_om-id-0"><rect x="14" y="13" width="37" height="42" fill="#fff"/></mask><g  ><path fill="#FFFCF0" d="M29.2 37.4L15.8 37.4L15.8 32.3L29.2 32.3L29.2 37.4ZM41.2 19.6L47.1 19.6L47.1 48L40.6 48L40.6 26.1L34.5 29.8L31.6 25.4L41.2 19.6Z "/></g></svg>