<svg width="64" height="64" viewBox="0 0 64 64" xmlns="http://www.w3.org/2000/svg"><mask id="satori_om-id"><rect x="0" y="0" width="64" height="64" fill="#fff"/></mask><path x="0" y="0" width="64" height="64" fill="#FC4B44" d="M12.8,0 h38.400000000000006 a12.8,12.8 0 0 1 12.8,12.8 v38.400000000000006 a12.8,12.8 0 0 1 -12.8,12.8 h-38.4 a12.8,12.8 0 0 1 -12.8,-12.8 v-38.4 a12.8,12.8 0 0 1 12.8,-12.8"/><mask id="satori_om-id-0"><rect x="13" y="13" width="38" height="42" fill="#fff"/></mask><g  ><path fill="#FFFCF0" d="M15.9 34.0L29.8 34.0L29.8 38.9L15.9 38.9L15.9 34.0ZM41.3 18.4L48.0 18.4L48.0 49L41.8 49L41.8 24.0L41.5 24.0L34.6 28.9L34.6 23.2L41.3 18.4Z "/></g></svg>